HIERARCHY
ROOT pelvis
{
  OFFSET 0 100 0
  CHANNELS 6 Xposition Yposition Zposition Zrotation Xrotation Yrotation
  JOINT pelvis_right_femur
  {
    OFFSET -10.78128 -3.44521 -0.5502486
    CHANNELS 3 Zrotation Xrotation Yrotation
    JOINT right_femur_tibia
    {
      OFFSET -0.8047443 -44.0398 -0.1307829
      CHANNELS 3 Zrotation Xrotation Yrotation
      JOINT right_tibia_foot
      {
        OFFSET 3.006224 -47.83518 -5
        CHANNELS 3 Zrotation Xrotation Yrotation
        End Site
        {
          OFFSET 0 -5 15
        }
      }
    }
  }
  JOINT pelvis_left_femur
  {
    OFFSET 10.78128 -3.44521 -0.5502486
    CHANNELS 3 Zrotation Xrotation Yrotation
    JOINT left_femur_tibia
    {
      OFFSET 0.8047443 -44.0398 -0.1307829
      CHANNELS 3 Zrotation Xrotation Yrotation
      JOINT left_tibia_foot
      {
        OFFSET -4.370144 -48.10324 -4.275266
        CHANNELS 3 Zrotation Xrotation Yrotation
        End Site
        {
          OFFSET 0 -5 15
        }
      }
    }
  }
  JOINT pelvis_spine1
  {
    OFFSET 0 6.468898 -3.129235
    CHANNELS 3 Zrotation Xrotation Yrotation
    JOINT spine1
    {
      OFFSET 0 23.15396 4.99043
      CHANNELS 3 Zrotation Xrotation Yrotation
      JOINT spine2
      {
        OFFSET 0 20.79997 -5.064912
        CHANNELS 3 Zrotation Xrotation Yrotation
        JOINT neck
        {
          OFFSET 0 14.38658 9.616178
          CHANNELS 3 Zrotation Xrotation Yrotation
          End Site
          {
            OFFSET 0 20 0
          }
        }
      }
      JOINT right_manubrium
      {
        OFFSET -5.722621 16.35077 3.967754
        CHANNELS 3 Zrotation Xrotation Yrotation
        JOINT right_clavicle
        {
          OFFSET -13.16364 1.694482 -4.693211
          CHANNELS 3 Zrotation Xrotation Yrotation
          JOINT right_humerus
          {
            OFFSET -28.5034 -0.3100689 -2.792744
            CHANNELS 3 Zrotation Xrotation Yrotation
            JOINT right_radius
            {
              OFFSET -25.15693 0.02248979 -1.271978
              CHANNELS 3 Zrotation Xrotation Yrotation
              End Site
              {
                OFFSET -15 0 0
              }
            }
          }
        }
      }
      JOINT left_manubrium
      {
        OFFSET 5.722621 16.35077 3.967754
        CHANNELS 3 Zrotation Xrotation Yrotation
        JOINT left_clavicle
        {
          OFFSET 13.16364 1.694482 -4.693211
          CHANNELS 3 Zrotation Xrotation Yrotation
          JOINT left_humerus
          {
            OFFSET 29.39168 -1.063119 -2.237045
            CHANNELS 3 Zrotation Xrotation Yrotation
            JOINT left_radius
            {
              OFFSET 24.59957 -0.9528479 0.9047498
              CHANNELS 3 Zrotation Xrotation Yrotation
              End Site
              {
                OFFSET 15 -0 -0
              }
            }
          }
        }
      }
    }
  }
}
MOTION
Frames: 11
Frame Time: 0.0416666666667
0 103.5113 0 0.6110552 -0.802481 -0.207668 5.418414 -18.28744 11.24216 -0 40.75386 -0 -5.167152 -15.8578 -1.644907 -7.609534 9.630363 -24.52867 -0 6.095718 -0 14.17823 -15.61791 31.52639 -3.626024 -3.68472 5.443088 2.454797 10.33584 -6.568884 2.214168 22.09513 6.261547 3.00561 -24.99558 10.30808 6.682905 -20.73488 12.05314 83.78878 35.06197 -15.91377 -0 0 17.58213 -5.083343 7.501587 3.146198 6.247028 -18.84212 -1.149866 -94.8813 22.50683 23.08204 0 0 -13.34988 14.89785 17.25832 -3.497375
0.4556575 103.5509 1.384078 0.5630462 -0.657023 -0.420719 5.553092 -18.85136 11.06856 -0 39.71619 -0 -5.065948 -15.625 -1.597568 -7.545394 9.878612 -24.23494 -0 6.126924 -0 14.183 -15.72467 31.27167 -3.535682 -3.731968 5.447346 2.458305 10.36166 -6.626643 2.218754 21.99721 6.255111 2.979753 -25.01206 10.3181 6.519418 -20.71604 12.00776 83.97771 34.83018 -16.14527 -0 0 17.49528 -5.242332 7.597046 3.131342 6.348887 -19.01059 -1.203757 -94.60835 22.18204 22.78968 0 0 -13.77418 15.19429 17.08755 -3.853024
0.7967707 103.3297 3.395273 0.4458923 -0.655456 -0.5094249 5.25267 -21.79783 8.445178 -0 34.25165 -0 -6.220005 -12.04365 -1.540359 -7.080143 11.7101 -22.16149 -0 6.214786 -0 12.61834 -16.94887 28.53694 -3.238336 -3.44225 4.73155 2.394789 10.45355 -7.041426 1.935515 22.03208 6.455875 3.168405 -24.6392 9.812799 5.494356 -20.11819 11.77567 85.88605 33.45421 -18.09087 -0 0 15.32963 -7.449495 7.795729 4.115574 6.781619 -20.48006 -2.087332 -92.682 21.86396 20.26222 0 0 -16.57782 14.835 16.77392 -3.452269
1.078871 102.9708 5.843247 0.289879 -0.2752671 -0.5483105 5.367629 -23.81387 7.252406 -0 30.2958 -0 -6.438107 -10.46902 -1.440958 -6.812055 12.67 -20.89802 -0 6.576916 -0 11.79586 -17.55758 26.92769 -2.944174 -3.397802 4.496763 2.409856 10.47628 -7.317174 1.819392 21.84118 6.539506 3.200111 -24.61183 9.645335 4.906743 -19.85472 11.62276 86.80735 32.72624 -19.18196 -0 0 14.43809 -8.429205 8.048052 4.441899 7.051019 -21.24933 -2.448561 -91.6671 21.40555 19.05933 0 0 -18.37118 14.87253 16.36807 -3.473382
1.289931 102.4524 8.818032 0.1252783 9.427952e-05 -0.5305105 5.40678 -25.95293 5.784849 -0 25.94622 -0 -6.774161 -8.443769 -1.325038 -6.534118 13.78256 -19.35605 -0 7.474457 -0 10.82738 -18.07787 25.03406 -2.592881 -3.342981 4.215515 2.390967 10.56768 -7.598808 1.705145 21.66563 6.601176 3.230278 -24.48426 9.422814 4.179447 -19.52055 11.45818 87.92357 31.68975 -20.38858 -0 0 13.30287 -9.691896 8.340633 4.856205 7.348522 -22.17408 -2.921642 -90.45145 20.65093 17.56817 0 0 -20.33487 15.09165 15.88945 -3.732247
1.440609 101.8301 12.32452 -0.05886757 0.2891124 -0.4751538 5.544418 -27.83533 4.554021 -0 21.9678 -0 -6.985166 -6.606168 -1.190373 -6.307278 14.71949 -17.87126 -0 9.015757 -0 9.9981 -18.3071 23.27151 -2.200669 -3.355899 4.041569 2.368402 10.71235 -7.842099 1.6337 21.44382 6.615873 3.223461 -24.40325 9.249548 3.493981 -19.24612 11.32052 88.91902 30.64065 -21.44746 -0 0 12.34623 -10.78937 8.67093 5.147923 7.595448 -23.00653 -3.337478 -89.40537 19.66718 16.34119 0 0 -22.0646 15.54811 15.35502 -4.261909
1.532338 101.1483 16.4056 -0.2502266 0.4558497 -0.3923719 5.68767 -29.47481 3.301802 -0 18.24697 -0 -7.249944 -4.558946 -1.039286 -6.113229 15.55723 -16.26405 -0 11.46395 -0 9.171338 -18.24243 21.43254 -1.757893 -3.392663 3.905158 2.314591 10.9584 -8.056485 1.580142 21.22673 6.58967 3.202091 -24.2772 9.052891 2.766491 -18.97922 11.2104 89.96482 29.40284 -22.46654 -0 0 11.33907 -11.97834 9.042361 5.443552 7.792593 -23.8719 -3.810202 -88.39235 18.40659 15.1786 0 0 -23.67694 16.19524 14.76894 -5.020433
1.571723 100.4864 21.08424 -0.4462697 0.4799589 -0.2965507 5.875205 -30.69859 2.117659 -0 15.06009 -0 -7.559463 -2.374465 -0.8771254 -5.958309 16.16191 -14.57753 -0 15.0303 -0 8.37941 -17.79885 19.56869 -1.266172 -3.457635 3.837406 2.230287 11.32597 -8.234151 1.541241 21.01254 6.519763 3.164533 -24.12519 8.832864 2.036734 -18.75655 11.1481 91.01971 28.0283 -23.40283 -0 0 10.35078 -13.20534 9.464374 5.727777 7.894235 -24.73042 -4.334062 -87.49901 16.92353 14.23606 0 0 -25.07384 16.96923 14.14467 -5.919045
1.566352 99.94343 26.36668 -0.6354169 0.289001 -0.2044292 6.109511 -31.32532 1.006994 -0 12.60041 -0 -7.953262 -0.04047675 -0.7149994 -5.831503 16.40457 -12.79773 -0 19.94271 -0 7.606283 -16.90497 17.67557 -0.7296862 -3.534099 3.846327 2.107984 11.8455 -8.370465 1.50443 20.81938 6.404778 3.115021 -23.92564 8.562752 1.317428 -18.60188 11.15353 92.08857 26.51531 -24.24019 -0 0 9.389296 -14.50542 9.949305 6.032357 7.856429 -25.58151 -4.940571 -86.75133 15.27935 13.58655 0 0 -26.20594 17.76684 13.50671 -6.830329
1.527344 99.64347 32.21859 -0.8049127 -0.1662256 -0.1369307 6.422114 -31.1224 0.05221586 -0 11.11593 -0 -8.426881 2.313536 -0.5732252 -5.708242 16.08868 -10.96863 -0 26.32128 -0 6.870303 -15.49611 15.81522 -0.1619376 -3.609373 3.959917 1.948299 12.53543 -8.45956 1.457532 20.65586 6.243842 3.053326 -23.6775 8.227545 0.6514709 -18.56749 11.25026 93.12607 24.92712 -24.93154 -0 0 8.544271 -15.84682 10.51247 6.366832 7.625477 -26.38652 -5.635884 -86.20932 13.59928 13.3774 0 0 -26.98598 18.44338 12.89977 -7.572055
1.468298 99.71832 38.54767 -0.9380901 -0.9306035 -0.1192404 6.832065 -29.84631 -0.6650179 -0 10.77591 -0 -8.960341 4.473166 -0.4832755 -5.53961 14.99054 -9.153781 -0 34.08146 -0 6.191679 -13.55077 14.07893 0.4119314 -3.664064 4.204684 1.755206 13.3992 -8.496154 1.385983 20.53223 6.037367 2.978358 -23.37363 7.811197 0.08589909 -18.71874 11.45863 94.06619 23.34921 -25.41631 -0 0 7.940912 -17.1904 11.16762 6.748353 7.15659 -27.09819 -6.417413 -85.92399 12.05078 13.7501 0 0 -27.33378 18.8185 12.38956 -7.92384
